# xmcd CD database file
#
# Track frame offsets:
#	150
#	17700
#	38233
#	52756
#	67800
#	82515
#	96092
#	108893
#	126176
#	143985
#	159538
#	174002
#	192455
#	206266
#	219391
#
# Disc length: 3103 seconds
#
# Revision: 0
# Processed by: cddbd v1.5.2PL0 Copyright (c) Steve Scherf et al.
# Submitted via: CDex 1.70beta2
#
DISCID=b60c1d0f
DTITLE=La Dimension Latina - Lo Mejor
DYEAR=1900
DGENRE=Salsa
TTITLE0=TABOGA
TTITLE1=QUISQUELLA
TTITLE2=PAPRAMPAMPAM
TTITLE3=EL MALA SUERTE
TTITLE4=QUE BAILEN TO'S
TTITLE5=PENSANDO EN TI
TTITLE6=AZUCAR PA UN AMARGAO
TTITLE7=SIGUE TU CAMINO
TTITLE8=ARROZ CON MANTECA
TTITLE9=DON CASIMIRO
TTITLE10=TIENE COIMBRE
TTITLE11=JUANCITO TRUCUPEY
TTITLE12=VUELTA Y VUELTA
TTITLE13=TA TA LI BA BA
TTITLE14=MADRE
EXTD=
EXTT0=
EXTT1=
EXTT2=
EXTT3=
EXTT4=
EXTT5=
EXTT6=
EXTT7=
EXTT8=
EXTT9=
EXTT10=
EXTT11=
EXTT12=
EXTT13=
EXTT14=
PLAYORDER=
